<?xml version="1.0" encoding="utf-8"?>
<svg version="1.1" id="design-system-github-octocat-icon"
	 xmlns="http://www.w3.org/2000/svg" xmlns:xlink="http://www.w3.org/1999/xlink" x="0px" y="0px" viewBox="0 0 256 225.5"
	 style="enable-background:new 0 0 256 225.5;" xml:space="preserve">
<style type="text/css">
	.st0{fill:#9EDCF2;}
	.st1{clip-path:url(#SVGID_2_);fill:#7DBCE7;}
	.st2{fill:#010101;}
	.st3{fill:#F5CCB3;}
	.st4{fill:#FFFFFF;}
	.st5{fill:#AF5C51;}
	.st6{fill:#C4E5D9;}
</style>
<path class="st0" d="M200.9,199.8c0,13.9-32.2,25.1-71.9,25.1s-71.9-11.3-71.9-25.1c0-13.9,32.2-25.1,71.9-25.1
	S200.9,185.9,200.9,199.8z"/>
<g>
	<defs>
		<path id="SVGID_1_" d="M142.8,224.4v-11.5c0,0,0.3-9.3,5.1-12.8c0,0,3.2-5.7-3.8-4.2c0,0-13.4,1.9-14,17.6l-1.1,11.4l0,0
			l-2.7-11.4c-0.6-15.6-14-17.6-14-17.6c-7-1.6-3.8,4.2-3.8,4.2c4.8,3.5,5.1,12.8,5.1,12.8v12c-4.6-3.3-3.8-0.9-3.8-0.9v-17.8
			c0-16-19.5-14.4-19.5-14.4c-4.5,1.6-0.3,4.5-0.3,4.5c7,2.6,7.7,10.2,7.7,10.2l-2.2,15.9h2.2l0,0c1.6,7.5,8.2-1,12.1,1.6l36.8,0.2
			c5-3.4,12.1,4.9,12.1-7.1v-10.6c0,0,0.6-7.7,7.7-10.2c0,0,4.1-2.9-0.3-4.5c0,0-19.5-1.6-19.5,14.4"/>
	</defs>
	<clipPath id="SVGID_2_">
		<use xlink:href="#SVGID_1_"  style="overflow:visible;"/>
	</clipPath>
	<path class="st1" d="M200.9,199.8c0,13.9-32.2,25.1-71.9,25.1s-71.9-11.3-71.9-25.1c0-13.9,32.2-25.1,71.9-25.1
		S200.9,185.9,200.9,199.8z"/>
</g>
<path class="st0" d="M46.9,125.9l-2.1,7.2c0,0-0.5,2.6,1.9,3.1c2.6-0.1,2.4-2.5,2.2-3.2L46.9,125.9L46.9,125.9z"/>
<path class="st2" d="M255.8,95.6l0.2-0.9c-21.1-4.2-42.7-4.3-55.8-3.7c2.1-7.7,2.8-16.7,2.8-26.6c0-14.3-5.4-25.7-14-34.3
	c1.5-4.9,3.5-15.8-2-29.7c0,0-9.8-3.1-32.1,11.8c-8.7-2.2-18-3.3-27.3-3.3c-10.2,0-20.5,1.3-30.2,3.9C74.4-2.9,64.3,0.3,64.3,0.3
	c-6.6,16.5-2.5,28.8-1.3,31.8c-7.8,8.4-12.5,19.1-12.5,32.2c0,9.9,1.1,18.8,3.9,26.5c-13.2-0.5-34-0.3-54.4,3.8l0.2,0.9
	c20.4-4.1,41.4-4.2,54.5-3.7c0.6,1.6,1.3,3.2,2,4.7c-13,0.4-35.1,2.1-56.3,8.1l0.3,0.9c21.4-6,43.7-7.6,56.6-8
	c7.8,14.4,23,23.8,50.2,26.7c-3.9,2.6-7.8,7-9.4,14.5c-5.3,2.5-21.9,8.7-31.9-8.5c0,0-5.6-10.2-16.3-11c0,0-10.4-0.2-0.7,6.5
	c0,0,6.9,3.3,11.7,15.6c0,0,6.3,21,36.4,14.2V177c0,0-0.6,7.7-7.7,10.2c0,0-4.2,2.9,0.3,4.5c0,0,19.5,1.6,19.5-14.4v-23.6
	c0,0-0.8-9.4,3.8-12.6v38.8c0,0-0.3,9.3-5.1,12.8c0,0-3.2,5.7,3.8,4.2c0,0,13.4-1.9,14-17.6l0.3-39.3h3.2l0.3,39.3
	c0.6,15.6,14,17.6,14,17.6c7,1.6,3.8-4.2,3.8-4.2c-4.8-3.5-5.1-12.8-5.1-12.8v-38.5c4.6,3.6,3.8,12.3,3.8,12.3v23.6
	c0,16,19.5,14.4,19.5,14.4c4.5-1.6,0.3-4.5,0.3-4.5c-7-2.6-7.7-10.2-7.7-10.2v-31c0-12.1-5.1-18.5-10.1-21.8
	c29-2.9,42.9-12.2,49.3-26.8c12.7,0.3,35.6,1.9,57.4,8.1l0.3-0.9c-21.7-6.1-44.4-7.7-57.3-8.1c0.6-1.5,1.1-3,1.6-4.6
	C212.9,91.4,234.6,91.4,255.8,95.6L255.8,95.6z"/>
<path class="st3" d="M174.6,63.7c6.2,5.7,9.9,12.5,9.9,19.8c0,34.4-25.6,35.3-57.2,35.3S70.1,114,70.1,83.5c0-7.3,3.6-14.1,9.8-19.7
	c10.3-9.4,27.7-4.4,47.4-4.4S164.3,54.3,174.6,63.7z"/>
<path class="st4" d="M108.3,85.3c0,9.5-5.3,17.1-11.9,17.1c-6.6,0-11.9-7.7-11.9-17.1c0-9.5,5.3-17.1,11.9-17.1
	C103,68.1,108.3,75.8,108.3,85.3z"/>
<path class="st5" d="M104.5,85.5c0,6.3-3.6,11.4-7.9,11.4c-4.4,0-7.9-5.1-7.9-11.4s3.6-11.4,7.9-11.4S104.5,79.2,104.5,85.5z"/>
<path class="st4" d="M172.2,85.3c0,9.5-5.3,17.1-11.9,17.1c-6.6,0-11.9-7.7-11.9-17.1c0-9.5,5.3-17.1,11.9-17.1
	C166.8,68.1,172.2,75.8,172.2,85.3z"/>
<path class="st5" d="M168.3,85.5c0,6.3-3.6,11.4-7.9,11.4c-4.4,0-7.9-5.1-7.9-11.4s3.6-11.4,7.9-11.4
	C164.8,74.1,168.3,79.2,168.3,85.5z M130.5,100.5c0,1.6-1.3,3-3,3c-1.6,0-3-1.3-3-3s1.3-3,3-3C129.1,97.5,130.5,98.8,130.5,100.5z
	 M120.6,108c-0.2-0.5,0.1-1,0.6-1.2s1,0.1,1.2,0.6c0.8,2.2,2.8,3.6,5.1,3.6c2.3,0,4.3-1.5,5.1-3.6c0.2-0.5,0.7-0.8,1.2-0.6
	c0.5,0.2,0.8,0.7,0.6,1.2c-1,2.9-3.8,4.9-6.9,4.9C124.4,112.9,121.6,110.9,120.6,108z"/>
<path class="st6" d="M54.5,121.6c0,0.8-0.9,1.4-2.1,1.4c-1.1,0-2.1-0.6-2.1-1.4s0.9-1.4,2.1-1.4C53.6,120.2,54.5,120.8,54.5,121.6z
	 M60.3,124.8c0,0.8-0.9,1.4-2.1,1.4c-1.1,0-2.1-0.6-2.1-1.4s0.9-1.4,2.1-1.4C59.4,123.4,60.3,124,60.3,124.8z M63.8,129
	c0,0.8-0.9,1.4-2.1,1.4c-1.1,0-2.1-0.6-2.1-1.4c0-0.8,0.9-1.4,2.1-1.4C62.9,127.5,63.8,128.2,63.8,129z M67,133.8
	c0,0.8-0.9,1.4-2.1,1.4c-1.1,0-2.1-0.6-2.1-1.4c0-0.8,0.9-1.4,2.1-1.4C66.1,132.3,67,133,67,133.8z M70.5,138.2
	c0,0.8-0.9,1.4-2.1,1.4c-1.1,0-2.1-0.6-2.1-1.4c0-0.8,0.9-1.4,2.1-1.4S70.5,137.4,70.5,138.2z M75.3,142.1c0,0.8-0.9,1.4-2.1,1.4
	c-1.1,0-2.1-0.6-2.1-1.4c0-0.8,0.9-1.4,2.1-1.4C74.4,140.6,75.3,141.3,75.3,142.1z M82,144.6c0,0.8-0.9,1.4-2.1,1.4
	c-1.1,0-2.1-0.6-2.1-1.4c0-0.8,0.9-1.4,2.1-1.4S82,143.8,82,144.6z M88.7,144.6c0,0.8-0.9,1.4-2.1,1.4c-1.1,0-2.1-0.6-2.1-1.4
	c0-0.8,0.9-1.4,2.1-1.4S88.7,143.8,88.7,144.6z M95.5,143.5c0,0.8-0.9,1.4-2.1,1.4c-1.1,0-2.1-0.6-2.1-1.4c0-0.8,0.9-1.4,2.1-1.4
	C94.5,142.1,95.5,142.7,95.5,143.5z"/>
</svg>
