<?xml version="1.0" encoding="utf-8"?>
<!-- Generator: Adobe Illustrator 21.1.0, SVG Export Plug-In . SVG Version: 6.00 Build 0)  -->
<svg version="1.1" id="Layer_1" xmlns="http://www.w3.org/2000/svg" xmlns:xlink="http://www.w3.org/1999/xlink" x="0px" y="0px"
	 viewBox="0 0 800 800" style="enable-background:new 0 0 800 800;" xml:space="preserve">
<style type="text/css">
	.st0{fill:#020202;}
	.st1{fill:#EC2023;}
</style>
<g>
	<path class="st0" d="M192.9,150.8H111v117.6h81.9c32.5,0,58.8-26.3,58.8-58.8C251.7,177.1,225.4,150.8,192.9,150.8 M260.5,518.3
		l-87-177.6H111v177.6h-87V73.4h174.5c74.1-5.5,138.6,50.1,144.1,124.2c0,0.1,0,0.1,0,0.2c0,3.9,0,7.9,0,11.8
		c1.5,52.5-31.4,99.8-81.1,116.8l100.2,191.9H260.5z"/>
	<path class="st0" d="M192.9,150.8H111v117.6h81.9c32.5,0,58.8-26.3,58.8-58.8C251.7,177.1,225.4,150.8,192.9,150.8 M260.5,518.3
		l-87-177.6H111v177.6h-87V73.4h174.5c74.1-5.5,138.6,50.1,144.1,124.2c0,0.1,0,0.1,0,0.2c0,3.9,0,7.9,0,11.8
		c1.5,52.5-31.4,99.8-81.1,116.8l100.2,191.9H260.5z"/>
	<path class="st0" d="M625.2,151.1h-80.5v121.9h81.3c33.7,1.9,62.5-23.9,64.3-57.6c1.8-33.1-23.1-61.6-56.2-64.2h-8.2 M629.2,351.4
		h-84.4v168.9h-86.4V73.7h172.5c76.6-4.9,142.7,53.3,147.6,129.9c4.9,76.6-53.3,142.7-129.9,147.6c-5.9,0.4-11.8,0.4-17.7,0"/>
	<rect x="24.1" y="630.6" class="st1" width="320.8" height="83.6"/>
</g>
</svg>
